<?xml version="1.0" standalone="no"?>
<!DOCTYPE svg PUBLIC "-//W3C//DTD SVG 20010904//EN"
 "http://www.w3.org/TR/2001/REC-SVG-20010904/DTD/svg10.dtd">
<svg version="1.0" xmlns="http://www.w3.org/2000/svg"
 width="700.000000pt" height="700.000000pt" viewBox="0 0 700.000000 700.000000"
 preserveAspectRatio="xMidYMid meet">
<metadata>
Created by potrace 1.11, written by Peter Selinger 2001-2013
</metadata>
<g transform="translate(0.000000,700.000000) scale(0.100000,-0.100000)"
fill="#000000" stroke="none">
<path d="M3218 6995 c-1 -1 -38 -5 -80 -9 -43 -4 -83 -8 -90 -11 -7 -2 -35 -6
-63 -9 -27 -3 -61 -8 -75 -11 -14 -3 -41 -8 -60 -11 -19 -2 -100 -20 -179 -40
-329 -81 -636 -204 -931 -375 -79 -45 -330 -213 -371 -247 -13 -11 -67 -55
-119 -98 -149 -124 -390 -371 -490 -503 -132 -175 -182 -247 -259 -376 -142
-238 -233 -433 -316 -677 -67 -195 -132 -471 -159 -673 -29 -217 -29 -697 -1
-890 3 -16 7 -48 10 -70 20 -155 84 -421 140 -590 203 -607 548 -1122 1046
-1560 95 -85 472 -355 495 -355 2 0 22 -11 43 -24 118 -75 412 -208 606 -275
196 -68 504 -142 657 -157 35 -3 66 -8 69 -9 29 -18 535 -26 709 -12 111 9
120 10 310 43 446 76 890 250 1295 509 70 45 235 163 250 179 6 6 28 24 49 40
93 70 317 283 404 386 26 30 63 72 83 95 101 113 262 348 361 525 60 107 168
324 168 336 0 3 6 20 14 37 103 226 193 566 241 905 3 24 9 60 11 80 10 65 12
605 4 667 -5 33 -11 87 -15 120 -7 70 -29 199 -53 305 -9 41 -17 77 -17 80
-31 151 -129 435 -215 625 -44 98 -119 245 -141 277 -11 14 -19 30 -19 34 0 4
-11 24 -23 43 -13 20 -41 63 -62 96 -38 60 -154 225 -165 235 -3 3 -21 25 -39
50 -136 177 -384 423 -586 581 -119 93 -305 218 -434 292 -46 25 -275 140
-321 160 -216 93 -432 161 -695 220 -64 15 -183 33 -360 56 -63 8 -618 14
-627 6z m362 -2582 c267 -107 499 -201 515 -208 17 -7 111 -45 210 -85 99 -39
199 -80 221 -90 23 -11 53 -22 67 -26 15 -3 30 -11 35 -17 6 -8 -48 -155 -150
-407 -88 -217 -163 -404 -167 -415 -5 -11 -13 -31 -19 -45 -14 -31 -86 -208
-164 -405 -33 -82 -68 -168 -78 -190 -10 -22 -26 -64 -36 -94 -11 -29 -24 -55
-31 -58 -10 -4 -156 50 -283 105 -14 6 -189 77 -390 158 -659 264 -785 315
-815 328 -16 8 -51 21 -77 31 -27 10 -48 23 -48 29 0 7 45 124 101 262 55 137
148 366 205 509 57 143 109 269 114 280 5 11 55 135 111 275 56 140 105 263
110 272 9 17 12 17 47 2 20 -8 255 -103 522 -211z"/>
</g>
</svg>
