<?xml version="1.0" standalone="no"?>
<!DOCTYPE svg PUBLIC "-//W3C//DTD SVG 20010904//EN"
 "http://www.w3.org/TR/2001/REC-SVG-20010904/DTD/svg10.dtd">
<svg version="1.0" xmlns="http://www.w3.org/2000/svg"
 width="303.000000pt" height="303.000000pt" viewBox="0 0 303.000000 303.000000"
 preserveAspectRatio="xMidYMid meet">
<metadata>
Created by potrace 1.11, written by Peter Selinger 2001-2013
</metadata>
<g transform="translate(0.000000,303.000000) scale(0.100000,-0.100000)"
fill="#000000" stroke="none">
<path d="M1858 3020 c-41 -7 -86 -34 -108 -64 -60 -80 -90 -183 -146 -491 -29
-162 -64 -232 -161 -322 -186 -171 -250 -248 -341 -413 -32 -59 -95 -216 -106
-266 -6 -29 -11 -31 -104 -54 -117 -29 -104 -26 -122 -33 -8 -3 -49 -15 -90
-27 -41 -12 -100 -32 -130 -45 -60 -25 -319 -91 -390 -99 -25 -3 -46 -5 -47
-5 -7 -2 -2 -50 5 -54 26 -17 516 106 617 154 32 15 81 28 203 54 63 13 115
25 117 27 2 2 10 26 18 53 82 264 164 406 326 565 163 160 230 282 285 528 19
81 37 164 40 184 31 196 92 267 203 236 103 -28 169 -179 167 -383 0 -84 -32
-189 -79 -265 -92 -147 -142 -286 -123 -338 20 -51 71 -77 157 -78 42 -1 105
2 141 6 72 9 225 22 280 24 83 3 173 -22 226 -61 63 -47 67 -108 14 -213 -27
-53 -28 -59 -14 -85 8 -15 36 -48 63 -74 92 -86 96 -114 32 -219 l-40 -66 20
-33 c29 -47 32 -101 9 -169 -18 -52 -19 -66 -9 -141 l11 -83 -33 -53 c-18 -28
-41 -59 -50 -67 -10 -9 -29 -43 -43 -75 -33 -74 -76 -156 -91 -171 -6 -7 -22
-25 -36 -40 -37 -44 -119 -109 -168 -134 -113 -57 -450 8 -547 105 -23 23 -35
66 -29 104 10 61 21 65 111 42 79 -20 195 -38 289 -47 28 -2 60 -6 73 -9 15
-4 49 7 95 30 71 35 77 41 182 173 61 77 38 68 -47 -18 -115 -115 -144 -133
-221 -134 -80 -2 -214 18 -340 50 -102 26 -155 48 -194 81 -12 10 -29 23 -38
28 -16 10 -20 36 -17 108 2 27 11 47 36 74 l34 37 63 -22 c70 -24 184 -43 381
-63 l126 -12 54 26 c103 51 256 221 298 331 15 39 5 31 -28 -23 -46 -73 -169
-194 -242 -236 -62 -36 -67 -37 -160 -36 -90 1 -113 3 -177 17 -16 3 -60 11
-99 19 -122 22 -180 43 -226 81 -51 43 -57 56 -59 132 -3 93 -2 96 49 133 82
60 82 59 134 34 25 -12 57 -25 70 -28 85 -22 445 -29 489 -10 54 23 132 113
179 209 24 49 45 92 47 97 2 4 0 7 -4 7 -5 0 -26 -30 -46 -66 -42 -73 -125
-163 -173 -187 -27 -14 -61 -16 -205 -13 -274 6 -404 41 -440 120 -25 56 -24
94 7 152 39 75 27 70 202 78 123 6 147 10 205 32 49 18 163 18 217 -1 57 -20
67 -19 45 5 -25 28 -107 52 -176 52 l-60 0 18 21 c72 85 145 130 233 144 39 6
42 7 20 13 -36 10 -109 1 -155 -20 -56 -25 -142 -105 -156 -145 -7 -19 -20
-37 -28 -41 -9 -3 -79 -8 -156 -11 -153 -5 -187 -11 -226 -45 -56 -49 -75
-189 -36 -267 9 -19 17 -35 17 -36 0 -1 -22 -16 -49 -34 -53 -34 -67 -61 -72
-141 -7 -108 -2 -140 24 -177 l26 -36 -19 -38 c-16 -31 -34 -119 -34 -164 0
-55 46 -134 85 -147 17 -6 21 -178 4 -178 -5 0 -22 -6 -37 -14 -43 -23 -136
-39 -224 -38 -92 0 -105 3 -192 43 -34 16 -67 29 -72 29 -6 0 -10 5 -10 10 0
6 -5 10 -11 10 -36 0 -115 147 -124 230 -2 19 -4 35 -5 35 -1 0 -4 20 -6 45
-7 67 -25 152 -31 146 -18 -17 4 -277 28 -341 23 -60 23 -65 5 -65 -31 0 -258
-76 -351 -117 -186 -83 -486 -228 -542 -263 -27 -16 -33 -26 -33 -55 0 -19 2
-35 5 -35 3 0 44 23 92 51 96 55 346 181 433 218 186 79 471 162 479 139 9
-27 90 -95 146 -123 59 -29 63 -30 210 -29 120 1 164 5 222 22 40 11 77 23 81
26 5 3 18 -8 30 -23 12 -16 47 -41 79 -55 32 -15 65 -31 74 -36 31 -17 197
-41 286 -41 89 -1 206 66 325 184 67 66 77 81 120 187 36 87 59 127 94 165
l47 49 -8 81 c-14 143 -12 166 19 210 21 31 26 47 21 70 -4 17 -7 35 -8 42 0
7 -4 10 -8 8 -4 -3 -12 8 -17 24 -8 23 -6 34 9 57 43 62 69 125 69 163 0 41
-24 68 -114 131 -19 14 -38 33 -42 43 -3 10 8 51 25 92 48 115 40 179 -32 235
-83 66 -287 84 -497 44 -169 -32 -280 -20 -309 34 -16 30 28 186 65 232 7 8
23 35 37 60 92 167 108 222 103 354 -4 104 -9 134 -30 192 -49 138 -161 231
-258 214z"/>
</g>
</svg>
