<?xml version="1.0" encoding="utf-8"?>
<!-- Generator: Adobe Illustrator 22.1.0, SVG Export Plug-In . SVG Version: 6.00 Build 0)  -->
<svg version="1.1" id="Layer_1" xmlns="http://www.w3.org/2000/svg" xmlns:xlink="http://www.w3.org/1999/xlink" x="0px" y="0px"
	 viewBox="0 0 261 261" style="enable-background:new 0 0 261 261;" xml:space="preserve">
<style type="text/css">
	.st0{clip-path:url(#SVGID_2_);}
	.st1{fill:#BEBEBE;}
	.st2{fill:#404040;}
</style>
<g>
	<defs>
		<rect id="SVGID_1_" width="261" height="261"/>
	</defs>
	<clipPath id="SVGID_2_">
		<use xlink:href="#SVGID_1_"  style="overflow:visible;"/>
	</clipPath>
	<g id="Artboard_2" class="st0">
		<g id="Subtraction_1" transform="translate(4569 5463)">
			<path class="st1" d="M-4438.5-5213.5c-16.1,0-31.7-3.1-46.3-9.3c-14.2-6-26.9-14.6-37.8-25.5c-10.9-10.9-19.5-23.7-25.5-37.8
				c-6.2-14.7-9.3-30.2-9.3-46.3s3.1-31.7,9.3-46.3c6-14.2,14.6-26.9,25.5-37.8c10.9-10.9,23.7-19.5,37.8-25.5
				c14.7-6.2,30.2-9.3,46.3-9.3s31.7,3.1,46.3,9.3c14.2,6,26.9,14.6,37.8,25.5c10.9,10.9,19.5,23.7,25.5,37.8
				c6.2,14.7,9.3,30.2,9.3,46.3s-3.1,31.7-9.3,46.3c-6,14.2-14.6,26.9-25.5,37.8s-23.7,19.5-37.8,25.5
				C-4406.8-5216.6-4422.4-5213.5-4438.5-5213.5z M-4462.9-5389.9l-4.3,10.7l-24.4,60.5l-4.3,10.7l10.7,4.3l60.5,24.4l10.7,4.3
				l4.3-10.7l24.4-60.5l4.3-10.7l-10.7-4.3l-60.5-24.4L-4462.9-5389.9z"/>
			<path class="st2" d="M-4438.5-5225c14.5,0,28.6-2.8,41.8-8.4c12.8-5.4,24.3-13.2,34.2-23s17.6-21.4,23-34.2
				c5.6-13.2,8.4-27.3,8.4-41.8s-2.8-28.6-8.4-41.8c-5.4-12.8-13.2-24.3-23-34.2c-9.9-9.9-21.4-17.6-34.2-23
				c-13.2-5.6-27.3-8.4-41.8-8.4s-28.6,2.8-41.8,8.4c-12.8,5.4-24.3,13.2-34.2,23s-17.6,21.4-23,34.2c-5.6,13.2-8.4,27.3-8.4,41.8
				s2.8,28.6,8.4,41.8c5.4,12.8,13.2,24.3,23,34.2c9.9,9.9,21.4,17.6,34.2,23C-4467.1-5227.8-4453-5225-4438.5-5225 M-4469.2-5404.9
				l21.3,8.6l60.5,24.4l21.3,8.6l-8.6,21.3l-24.4,60.5l-8.6,21.3l-21.3-8.6l-60.5-24.4l-21.3-8.6l8.6-21.3l24.4-60.5L-4469.2-5404.9
				 M-4438.5-5202c-17.6,0-34.7-3.5-50.8-10.3c-15.5-6.6-29.5-16-41.5-28c-12-12-21.4-25.9-28-41.5c-6.8-16.1-10.3-33.2-10.3-50.8
				c0-17.6,3.5-34.7,10.3-50.8c6.6-15.5,16-29.5,28-41.5c12-12,25.9-21.4,41.5-28c16.1-6.8,33.2-10.3,50.8-10.3
				c17.6,0,34.7,3.5,50.8,10.3c15.5,6.6,29.5,16,41.5,28c12,12,21.4,25.9,28,41.5c6.8,16.1,10.3,33.2,10.3,50.8s-3.5,34.7-10.3,50.8
				c-6.6,15.5-16,29.5-28,41.5c-12,12-25.9,21.4-41.5,28C-4403.8-5205.5-4420.9-5202-4438.5-5202z M-4456.5-5375L-4456.5-5375
				l-24.4,60.5l60.5,24.4l24.4-60.5L-4456.5-5375L-4456.5-5375L-4456.5-5375L-4456.5-5375z"/>
		</g>
	</g>
</g>
</svg>
